<svg data-v-fde0c5aa="" xmlns="http://www.w3.org/2000/svg" viewBox="0 0 300 300" class="font"><!----><defs data-v-fde0c5aa=""><linearGradient data-v-fde0c5aa="" gradientTransform="rotate(25)" id="4f1c89df-7199-4dd4-98a6-5d1e80e0465b" x1="0%" y1="0%" x2="100%" y2="0%"><stop data-v-fde0c5aa="" offset="0%" stop-color="#326D8A" stop-opacity="1"></stop><stop data-v-fde0c5aa="" offset="100%" stop-color="#D468D7" stop-opacity="1"></stop></linearGradient></defs><rect data-v-fde0c5aa="" fill="url(#4f1c89df-7199-4dd4-98a6-5d1e80e0465b)" x="0" y="0" width="300px" height="300px" class="logo-background-square"></rect><defs data-v-fde0c5aa=""><!----></defs><g data-v-fde0c5aa="" id="4f3131fb-52e4-4834-a863-adb5e15c8fc1" fill="#ffffff" transform="matrix(3.263126757267332,0,0,3.263126757267332,36.2147730704885,113.61613634527323)"><path d="M8.63 5.46C7.72 5.46 6.97 5.88 6.51 6.56C6.06 5.90 5.34 5.46 4.55 5.46C3.85 5.46 3.26 5.79 2.82 6.32L2.82 5.60L1.16 5.60L1.16 12.60L2.82 12.60L2.82 8.33C2.82 7.65 3.31 7.00 4.06 7.00C4.78 7.00 5.32 7.60 5.32 8.33L5.32 12.60L6.98 12.60L6.98 8.33C6.98 7.65 7.47 7.00 8.23 7.00C8.94 7.00 9.49 7.60 9.49 8.33L9.49 12.60L11.15 12.60L11.15 8.16C11.15 6.62 10.12 5.46 8.63 5.46ZM20.28 9.07C20.25 6.97 18.71 5.46 16.59 5.46C14.46 5.46 12.85 7.00 12.85 9.10C12.85 11.20 14.44 12.74 16.61 12.74C18.41 12.74 19.76 11.67 20.16 10.15L18.50 10.15C18.20 10.89 17.50 11.36 16.61 11.36C15.44 11.36 14.61 10.54 14.53 9.36L20.27 9.36ZM16.61 6.86C17.52 6.86 18.17 7.37 18.46 8.17L14.67 8.17C14.98 7.39 15.66 6.86 16.61 6.86ZM29.52 5.46C28.61 5.46 27.86 5.88 27.41 6.56C26.95 5.90 26.23 5.46 25.45 5.46C24.75 5.46 24.15 5.79 23.71 6.32L23.71 5.60L22.05 5.60L22.05 12.60L23.71 12.60L23.71 8.33C23.71 7.65 24.20 7.00 24.96 7.00C25.67 7.00 26.22 7.60 26.22 8.33L26.22 12.60L27.88 12.60L27.88 8.33C27.88 7.65 28.37 7.00 29.12 7.00C29.84 7.00 30.38 7.60 30.38 8.33L30.38 12.60L32.04 12.60L32.04 8.16C32.04 6.62 31.01 5.46 29.52 5.46ZM39.64 5.60L39.64 6.37C39.03 5.81 38.20 5.46 37.29 5.46C35.32 5.46 33.74 7.07 33.74 9.10C33.74 11.13 35.32 12.74 37.29 12.74C38.22 12.74 39.04 12.39 39.66 11.81L39.66 13.02C39.66 14.35 38.73 15.31 37.47 15.31C36.49 15.31 35.70 14.72 35.42 13.84L33.90 14.47C34.42 15.91 35.77 16.84 37.47 16.84C39.74 16.84 41.32 15.24 41.32 12.97L41.32 5.60ZM37.56 11.20C36.38 11.20 35.46 10.27 35.46 9.10C35.46 7.93 36.38 7.00 37.56 7.00C38.73 7.00 39.67 7.93 39.67 9.10C39.67 10.27 38.73 11.20 37.56 11.20ZM47.44 5.46C46.53 5.46 45.78 5.88 45.29 6.56L45.29 5.60L43.63 5.60L43.63 12.60L45.29 12.60L45.29 9.05C45.29 7.82 46.20 7.00 47.41 7.00C47.64 7.00 47.83 7.04 48.00 7.07L48.00 5.51C47.83 5.48 47.64 5.46 47.44 5.46ZM56.81 11.24C56.47 11.24 56.16 11.06 56.16 10.45L56.16 5.60L54.50 5.60L54.50 6.34C53.90 5.79 53.13 5.46 52.24 5.46C50.26 5.46 48.69 7.07 48.69 9.10C48.69 11.13 50.26 12.74 52.24 12.74C53.25 12.74 54.15 12.29 54.74 11.57C55.09 12.27 55.77 12.74 56.63 12.74C56.84 12.74 57.03 12.69 57.19 12.60L57.19 11.24ZM52.45 11.20C51.28 11.20 50.35 10.27 50.35 9.10C50.35 7.93 51.28 7.00 52.45 7.00C53.60 7.00 54.55 7.93 54.55 9.10C54.55 10.27 53.60 11.20 52.45 11.20ZM66.06 5.46C65.15 5.46 64.40 5.88 63.95 6.56C63.49 5.90 62.77 5.46 61.98 5.46C61.29 5.46 60.69 5.79 60.25 6.32L60.25 5.60L58.59 5.60L58.59 12.60L60.25 12.60L60.25 8.33C60.25 7.65 60.74 7.00 61.50 7.00C62.21 7.00 62.76 7.60 62.76 8.33L62.76 12.60L64.42 12.60L64.42 8.33C64.42 7.65 64.91 7.00 65.66 7.00C66.38 7.00 66.92 7.60 66.92 8.33L66.92 12.60L68.58 12.60L68.58 8.16C68.58 6.62 67.55 5.46 66.06 5.46Z"></path></g><!----><!----></svg>